<?xml version="1.0" standalone="no"?>
<!DOCTYPE svg PUBLIC "-//W3C//DTD SVG 20010904//EN"
 "http://www.w3.org/TR/2001/REC-SVG-20010904/DTD/svg10.dtd">
<svg version="1.0" xmlns="http://www.w3.org/2000/svg"
 width="128.000000pt" height="128.000000pt" viewBox="0 0 128.000000 128.000000"
 preserveAspectRatio="xMidYMid meet">

<g transform="translate(0.000000,128.000000) scale(0.100000,-0.100000)"
fill="#000000" stroke="none">
<path d="M605 1055 l-160 -54 188 1 c103 0 187 4 187 9 0 13 -43 99 -49 98 -4
0 -78 -25 -166 -54z"/>
<path d="M665 919 c17 -6 63 -7 103 -4 50 4 78 2 88 -6 10 -8 18 -8 27 -1 21
17 61 9 72 -15 5 -13 18 -23 27 -23 10 0 18 -5 18 -12 0 -6 3 -9 6 -6 3 3 2
22 -1 42 l-7 36 -182 -1 c-131 0 -173 -3 -151 -10z"/>
<path d="M143 910 l-22 -9 21 -78 c11 -43 24 -82 28 -86 4 -5 11 29 14 74 4
45 10 88 13 95 6 16 -20 18 -54 4z"/>
<path d="M291 898 c1 -17 3 -18 6 -6 4 15 21 18 131 21 l127 3 -132 2 c-132 2
-133 2 -132 -20z"/>
<path d="M534 856 c-3 -15 -13 -26 -23 -26 -24 0 -42 -46 -30 -76 5 -14 13
-23 18 -19 5 3 12 1 16 -5 8 -12 45 -13 45 -1 0 14 -28 33 -40 26 -5 -3 -10
-1 -10 4 0 17 40 13 46 -4 4 -8 10 -15 16 -15 5 0 6 5 3 10 -7 11 30 8 41 -3
11 -11 54 -8 54 3 0 6 -11 15 -24 20 -18 7 -23 14 -19 29 4 16 1 21 -15 21
-11 0 -25 6 -31 14 -10 12 -9 13 7 9 11 -2 23 0 27 7 9 15 6 17 -37 25 -34 6
-38 5 -44 -19z"/>
<path d="M850 849 c0 -12 -7 -19 -20 -19 -11 0 -20 -7 -20 -15 0 -8 -7 -15
-15 -15 -8 0 -15 -7 -15 -15 0 -8 -6 -15 -13 -15 -20 0 -45 -35 -43 -61 1 -20
7 -25 36 -27 19 -2 41 -8 47 -14 9 -7 25 -5 54 6 36 15 44 15 58 2 23 -20 111
8 111 36 0 11 -4 16 -10 13 -6 -4 -8 12 -5 42 2 26 2 40 -1 30 -4 -12 -12 -16
-21 -13 -11 5 -14 1 -10 -13 3 -13 1 -18 -8 -15 -8 3 -12 -2 -12 -12 2 -22
-32 -32 -44 -13 -5 8 -3 20 5 29 7 8 14 22 14 30 1 8 4 27 8 43 5 23 3 27 -17
28 -13 1 -36 3 -51 5 -22 2 -28 -1 -28 -17z m20 -87 c0 -4 -9 -13 -20 -20 -19
-12 -20 -11 -8 8 13 20 28 27 28 12z"/>
<path d="M272 718 c-13 -145 -14 -209 -2 -138 10 58 24 270 18 270 -3 0 -10
-60 -16 -132z"/>
<path d="M576 731 c-4 -5 -4 -16 0 -24 3 -9 -3 -16 -15 -20 -12 -3 -21 0 -21
5 0 6 -8 16 -17 23 -14 11 -20 10 -30 -4 -8 -10 -12 -12 -13 -3 0 6 -11 12
-25 12 -26 0 -33 -14 -13 -26 7 -4 -2 -13 -22 -23 -44 -21 -46 -33 -10 -54 16
-10 30 -25 30 -33 0 -8 -5 -12 -10 -9 -6 4 -17 1 -25 -5 -8 -6 -24 -9 -36 -5
-18 6 -20 4 -14 -16 5 -13 15 -29 24 -36 13 -10 5 -12 -46 -13 -49 0 -64 4
-72 18 -8 13 -10 6 -10 -33 0 -27 3 -44 6 -37 3 7 25 12 59 12 31 0 64 4 74
10 13 7 19 6 23 -5 6 -14 47 -17 47 -3 0 4 7 8 15 8 8 0 15 5 15 11 0 7 -11 9
-31 5 -20 -4 -35 -1 -45 9 -13 13 -11 15 13 21 35 8 73 31 73 45 0 6 -8 8 -19
4 -12 -4 -21 0 -25 11 -4 12 -2 15 9 10 8 -3 15 0 15 7 0 8 3 8 9 -2 6 -8 19
-12 35 -9 15 3 29 1 32 -3 3 -5 -7 -9 -21 -9 -16 0 -24 -4 -20 -10 4 -6 1 -19
-7 -28 -12 -16 -11 -16 7 -2 29 22 66 53 82 69 14 13 13 16 -4 22 -11 4 -36 6
-55 5 -20 -1 -34 2 -32 6 3 5 18 8 35 8 16 0 29 4 29 9 0 15 32 22 46 10 11
-9 18 -9 28 0 12 10 13 6 6 -24 -9 -39 4 -53 35 -41 17 6 19 -2 6 -23 -5 -8
-16 -11 -25 -8 -21 8 -46 -2 -46 -19 0 -9 12 -14 33 -15 17 -1 24 -3 15 -6
-19 -5 -25 -23 -8 -23 5 0 7 -7 4 -15 -11 -27 23 -16 60 20 36 35 36 35 171
45 74 6 140 8 146 5 7 -5 9 5 7 26 -2 19 -7 34 -13 35 -5 0 -18 4 -28 9 -10 4
-29 3 -43 -4 -14 -6 -51 -11 -84 -11 -53 0 -62 -3 -91 -32 -18 -18 -29 -27
-25 -19 6 9 0 21 -19 37 -15 12 -24 28 -20 34 9 15 -13 40 -36 40 -11 0 -20 6
-20 13 -1 6 -2 19 -3 27 -2 21 -79 40 -90 21z m34 -41 c0 -5 -2 -10 -4 -10 -3
0 -8 5 -11 10 -3 6 -1 10 4 10 6 0 11 -4 11 -10z"/>
<path d="M1153 579 c3 -8 11 -50 17 -92 7 -42 16 -77 19 -77 4 0 16 7 27 15
19 15 19 16 -1 13 -16 -3 -21 6 -30 57 -6 33 -17 69 -24 80 -7 11 -10 13 -8 4z"/>
<path d="M546 515 c4 -10 0 -15 -14 -15 -40 0 -36 -31 6 -44 19 -6 23 -3 28
23 4 17 13 31 21 31 8 0 11 5 8 10 -3 6 -17 10 -30 10 -18 0 -23 -4 -19 -15z"/>
<path d="M963 513 c9 -2 23 -2 30 0 6 3 -1 5 -18 5 -16 0 -22 -2 -12 -5z"/>
<path d="M710 470 c0 -5 7 -10 15 -10 8 0 15 5 15 10 0 6 -7 10 -15 10 -8 0
-15 -4 -15 -10z"/>
<path d="M755 418 c-44 -5 -104 -11 -132 -14 -54 -6 -65 -19 -45 -52 11 -16
142 -29 142 -14 0 12 58 27 68 17 11 -10 -22 -25 -42 -19 -11 4 -16 2 -12 -4
3 -6 30 -13 59 -17 80 -9 107 -16 107 -25 0 -15 -32 -20 -73 -11 -112 24 -226
43 -238 39 -7 -2 20 -12 61 -20 41 -9 118 -28 170 -41 52 -14 137 -28 189 -31
l94 -7 -7 48 c-20 142 -17 136 -58 140 -40 4 -52 -11 -17 -22 19 -6 20 -8 3
-26 -28 -31 -40 -23 -40 24 l1 42 -75 1 c-41 1 -111 -3 -155 -8z m173 -24 c27
-8 29 -20 2 -27 -11 -3 -20 -1 -20 4 0 5 -14 6 -32 2 -23 -5 -29 -3 -24 6 5 7
14 10 22 7 8 -3 14 -1 14 4 0 11 6 12 38 4z m37 -44 c3 -5 1 -10 -4 -10 -6 0
-11 5 -11 10 0 6 2 10 4 10 3 0 8 -4 11 -10z"/>
<path d="M237 335 c-4 -44 -10 -101 -14 -127 -5 -45 -4 -48 17 -48 17 0 20 3
12 13 -14 16 -13 79 1 70 21 -13 137 -8 142 5 3 9 -1 11 -15 7 -11 -3 -46 -1
-78 5 -52 11 -59 15 -57 34 1 11 3 29 4 39 1 16 13 17 119 17 64 -1 132 -3
150 -7 30 -5 32 -7 32 -49 0 -35 -3 -42 -15 -38 -11 5 -13 2 -8 -12 4 -12 3
-15 -6 -10 -16 10 -92 15 -111 7 -9 -3 -2 -8 19 -11 22 -3 35 -11 37 -23 1 -9
-2 -15 -7 -11 -11 6 -24 -24 -15 -34 4 -3 11 -1 15 6 4 7 18 14 29 15 12 1 22
5 22 9 0 4 10 4 23 -1 12 -4 34 -6 50 -4 17 2 26 -1 25 -8 -5 -18 18 -21 35
-4 9 8 23 15 31 15 9 0 16 5 16 10 0 6 -7 10 -15 10 -8 0 -15 6 -15 13 0 9 -2
9 -9 -1 -6 -9 -19 -11 -45 -7 -34 7 -36 9 -36 49 0 65 -12 146 -21 141 -8 -6
-94 -17 -124 -16 -11 0 -21 4 -23 10 -2 5 -16 6 -35 1 -18 -4 -51 -11 -74 -14
-34 -5 -42 -3 -45 11 -2 10 -7 -18 -11 -62z m262 -126 c-16 -10 -23 -4 -14 10
3 6 11 8 17 5 6 -4 5 -9 -3 -15z"/>
<path d="M294 222 c3 -5 0 -13 -6 -15 -8 -3 -6 -6 5 -6 19 -1 23 14 5 25 -6 4
-8 3 -4 -4z"/>
<path d="M347 214 c6 -15 23 -19 23 -5 0 5 -7 11 -14 14 -10 4 -13 1 -9 -9z"/>
<path d="M727 210 c5 -21 33 -28 33 -9 0 5 5 7 12 3 7 -4 8 -3 4 4 -4 6 -14 8
-23 5 -11 -4 -14 -3 -9 5 4 7 1 12 -7 12 -10 0 -13 -7 -10 -20z"/>
<path d="M808 213 c7 -3 16 -2 19 1 4 3 -2 6 -13 5 -11 0 -14 -3 -6 -6z"/>
<path d="M380 200 c0 -5 11 -9 24 -8 14 1 22 6 20 10 -7 12 -44 10 -44 -2z"/>
<path d="M270 170 c0 -5 7 -10 15 -10 8 0 15 5 15 10 0 6 -7 10 -15 10 -8 0
-15 -4 -15 -10z"/>
<path d="M738 173 c12 -2 30 -2 40 0 9 3 -1 5 -23 4 -22 0 -30 -2 -17 -4z"/>
<path d="M1188 43 c12 -2 32 -2 45 0 12 2 2 4 -23 4 -25 0 -35 -2 -22 -4z"/>
<path d="M718 33 c46 -2 118 -2 160 0 42 1 5 3 -83 3 -88 0 -123 -2 -77 -3z"/>
<path d="M353 23 c15 -2 39 -2 55 0 15 2 2 4 -28 4 -30 0 -43 -2 -27 -4z"/>
</g>
</svg>
